<svg id="Layer_1" data-name="Layer 1" xmlns="http://www.w3.org/2000/svg" viewBox="0 0 1000 1000"><defs><style>.cls-1{fill:#6d3224;}.cls-2{fill:#fff;}</style></defs><title>176-Coconut</title><circle class="cls-1" cx="500" cy="500" r="500"/><path class="cls-2" d="M743.65,425.15c-27.42,47.45-61.12,73.48-97.58,75.44l-2.54-1.16c-14.93-6.75-27.64-11.54-37.23-14.8.77-2.08,1.63-4.26,2.56-6.53h0L676,459.32a7.7,7.7,0,0,0-4.14-14.83l-54.84,15.33q2.36-4.86,5-10.12c0-.07.07-.14.1-.22q7.93-15.75,18.71-34.87h0l57.07-13.92a7.69,7.69,0,1,0-3.64-14.95l-42.87,10.46q5.8-10,12.21-20.62s0,0,0-.06a2.88,2.88,0,0,0,.3-.5h0c22.79-37.84,43.31-68.87,43.52-69.18a7.7,7.7,0,0,0-12.84-8.5c-.17.28-15.85,24-35,55.23l-10.78-35.43a7.69,7.69,0,0,0-14.72,4.48l14.78,48.62q-10.8,18-19.86,34-6.57,11.61-12.17,22.08l-15.26-47.49a7.69,7.69,0,0,0-14.65,4.71l19.94,62.05h0c-4.21,8.45-7.83,16.19-10.75,23.05h0c-1.72,4-3.24,7.83-4.54,11.37-2.61-.72-4.23-1.11-4.74-1.24q-4.4-1.19-8.68-2.23a274.13,274.13,0,0,0-29.86-67.09c.13-24.61,9-52.2,26.22-82.1C613.89,259.27,738.3,193.27,774.75,175,777.33,215.78,783,357,743.65,425.15Z"/><path class="cls-2" d="M794.24,694.58C780.81,702,762.06,705,742.58,705A201.48,201.48,0,0,1,684,696.28c-42-13.35-125.54-46.95-172-88.18-2.72-2.42-5-4.36-7.13-6.1-12.49-10.14-42.62-37-52.7-67.13a49.69,49.69,0,0,1-2.34-20.37c-6.53,6.51-12,14.37-18.68,27.25-23.21,44.9-26.66,96.63-9.72,145.65a201,201,0,0,0,60.43,87.93h0a8.31,8.31,0,0,1,1,.82,210.73,210.73,0,0,0,38.37,25.45c47.36,24.5,101,30,150.88,15.4s90-47.25,113.22-92.14c6.17-11.94,9.63-21.87,11.58-31.82C796,693.57,795.14,694.09,794.24,694.58ZM630,761.84a152.18,152.18,0,0,1-29,2.91c-37.33,0-63.08-15.36-79.08-29.87-21.42-19.43-30.14-41.22-30.5-42.14a7.7,7.7,0,0,1,14.32-5.64,111.23,111.23,0,0,0,27,36.79c25,22.44,56.78,30.13,94.37,22.85a7.69,7.69,0,1,1,2.92,15.1Z"/><path class="cls-2" d="M534.39,416.36a7.28,7.28,0,0,1-.56-.88c-35-54.9-88.52-88.64-146.38-88.64-103.56,0-187.81,106.43-187.81,237.25s84.25,237.25,187.81,237.25c26.94,0,52.8-7,77-20.83a215.86,215.86,0,0,1-57.62-88.08c-18.33-53-14.57-109.07,10.6-157.74,14.71-28.46,26.17-36.55,46.74-50.79A50.54,50.54,0,0,1,490.39,470c19-3.65,42.65-2.74,70.43,2.7A255.51,255.51,0,0,0,534.39,416.36ZM306.08,663a7.7,7.7,0,1,1-13,8.24c-18.88-29.81-30.63-60.51-34.94-91.25a191.25,191.25,0,0,1,3.91-73.57c10.33-41.09,30.76-65.9,31.62-66.94a7.7,7.7,0,1,1,11.83,9.85,126.42,126.42,0,0,0-10.91,16.64,180.37,180.37,0,0,0-17.78,44.88C264.31,561.37,274.15,612.56,306.08,663Z"/><path class="cls-2" d="M757.26,591.91l-.06,0A479.52,479.52,0,0,0,642.61,516a7.6,7.6,0,0,1-3.64-1.69l-1.35-.62a385,385,0,0,0-41.41-16.13h0a7.64,7.64,0,0,1-2.14-.34,7.74,7.74,0,0,1-1.92-.92h0c-5.65-1.72-8.82-2.48-8.91-2.49l-.27-.07c-46.14-12.44-74.23-11.52-89.66-8.56a34.87,34.87,0,0,0-23.63,16.66A33.81,33.81,0,0,0,466.73,530c9,27,38.88,52.81,47.8,60.06,2.33,1.9,4.75,4,7.64,6.54,44.55,39.51,125.6,72,166.46,85,29.62,9.42,75.59,11.89,98.2-.52,6.88-3.77,11-8.5,12.65-14.42l.06-.2C806.15,641.49,771.26,604.18,757.26,591.91Zm-22,47.64s-16.33,28.53-118.33-23.46c0,0-78.92-37.94-87-74.89a12.1,12.1,0,0,1,8.28-14.15c12.5-3.82,41.9-3,109.47,29.53C647.72,556.58,741.87,603.69,735.27,639.55Z"/></svg>